<svg width="94" height="170" viewBox="0 0 94 170" fill="none" xmlns="http://www.w3.org/2000/svg">
<path d="M88.8825 76.7805C91.5376 75.2675 93.242 72.5215 93.4117 69.4841V26.8898C93.2381 23.8532 91.535 21.109 88.8825 19.5931L51.5186 0.91927C48.6322 -0.306423 45.3676 -0.306423 42.481 0.91927L5.11712 19.5931C2.46492 21.109 0.761548 23.8534 0.588135 26.8898V69.4841C0.757893 72.5215 2.46225 75.2675 5.11712 76.7805L17.046 82.8108L21.5548 85.0824L17.046 87.2533L5.11712 93.2836C2.48531 94.7813 0.784466 97.4915 0.588135 100.5V143.114C0.757239 146.147 2.46272 148.887 5.11712 150.391L42.481 169.064C45.3628 170.312 48.637 170.312 51.5186 169.064L88.8825 150.391C91.5371 148.887 93.2424 146.147 93.4117 143.114V100.5C93.242 97.4622 91.5376 94.7163 88.8825 93.2033L76.9535 87.173L72.4248 84.9218L76.9535 82.6501L88.8825 76.7805ZM70.5648 132.24C70.5024 133.379 69.8628 134.408 68.8664 134.973L48.6476 145.024C47.5631 145.486 46.3354 145.486 45.2508 145.024L25.0324 134.973C24.0359 134.408 23.3962 133.379 23.334 132.24V111.375C23.3962 110.236 24.0359 109.206 25.0324 108.641L45.2508 98.5902C46.3281 98.0946 47.5704 98.0946 48.6476 98.5902L68.8664 108.641C69.8628 109.206 70.5024 110.236 70.5648 111.375V132.24ZM70.5648 58.6296C70.4989 59.7673 69.8603 60.7954 68.8664 61.3632L48.6476 71.4136C47.5704 71.9095 46.3281 71.9095 45.2508 71.4136L25.0324 61.3632C24.0385 60.7954 23.3998 59.7673 23.334 58.6296V37.7443C23.4071 36.6089 24.0438 35.584 25.0324 35.0107L45.2508 24.9601C46.3354 24.4975 47.5631 24.4975 48.6476 24.9601L68.8664 35.0107C69.8547 35.584 70.4917 36.6089 70.5648 37.7443V58.6296Z" fill="white"/>
</svg>
