<svg width="200" height="200" viewBox="0 0 200 200" fill="none" xmlns="http://www.w3.org/2000/svg">
<rect width="200" height="200" rx="20" fill="black"/>
<path d="M141.882 91.7805C144.538 90.2675 146.242 87.5215 146.412 84.4841V41.8898C146.238 38.8532 144.535 36.109 141.882 34.5931L104.519 15.9193C101.632 14.6936 98.3676 14.6936 95.481 15.9193L58.1171 34.5931C55.4649 36.109 53.7615 38.8534 53.5881 41.8898V84.4841C53.7579 87.5215 55.4622 90.2675 58.1171 91.7805L70.046 97.8108L74.5548 100.082L70.046 102.253L58.1171 108.284C55.4853 109.781 53.7845 112.492 53.5881 115.5V158.114C53.7572 161.147 55.4627 163.887 58.1171 165.391L95.481 184.064C98.3628 185.312 101.637 185.312 104.519 184.064L141.882 165.391C144.537 163.887 146.242 161.147 146.412 158.114V115.5C146.242 112.462 144.538 109.716 141.882 108.203L129.954 102.173L125.425 99.9218L129.954 97.6501L141.882 91.7805ZM123.565 147.24C123.502 148.379 122.863 149.408 121.866 149.973L101.648 160.024C100.563 160.486 99.3354 160.486 98.2508 160.024L78.0324 149.973C77.0359 149.408 76.3962 148.379 76.334 147.24V126.375C76.3962 125.236 77.0359 124.206 78.0324 123.641L98.2508 113.59C99.3281 113.095 100.57 113.095 101.648 113.59L121.866 123.641C122.863 124.206 123.502 125.236 123.565 126.375V147.24ZM123.565 73.6296C123.499 74.7673 122.86 75.7954 121.866 76.3632L101.648 86.4136C100.57 86.9095 99.3281 86.9095 98.2508 86.4136L78.0324 76.3632C77.0385 75.7954 76.3998 74.7673 76.334 73.6296V52.7443C76.4071 51.6089 77.0438 50.584 78.0324 50.0107L98.2508 39.9601C99.3354 39.4975 100.563 39.4975 101.648 39.9601L121.866 50.0107C122.855 50.584 123.492 51.6089 123.565 52.7443V73.6296Z" fill="white"/>
</svg>
